<?xml version="1.0" encoding="UTF-8"?>
<svg id="Layer_1" xmlns="http://www.w3.org/2000/svg" version="1.1" viewBox="0 0 1920 1080">
  <!-- Generator: Adobe Illustrator 29.2.1, SVG Export Plug-In . SVG Version: 2.1.0 Build 116)  -->
  <defs>
    <style>
      .st0 {
        fill: #9b79fc;
      }

      .st1 {
        fill: #8257fb;
      }

      .st2 {
        fill: #c4c4c4;
      }

      .st3 {
        fill: #6846c9;
      }

      .st4 {
        fill: #fff;
      }

      .st5 {
        fill: #9e57fb;
      }

      .st6 {
        fill: #afbcfd;
      }

      .st7 {
        fill: #f5f5f5;
      }

      .st8 {
        fill: #7f46c9;
      }
    </style>
  </defs>
  <path class="st4" d="M1309.4,191v698.4h-698.4V191h698.4ZM808.14,540.2v.48c0,15.98-.01,31.99,0,47.97l-2.66.46c-12.73,10.73-29.36,20.29-41.48,31.44-12.93,11.9-11.66,30.52-11.53,46.55.25,29.35,1.07,58.87,1.48,88.22.12,8.66-1.23,22.31,0,30.21.97,6.2,11.53,15.63,18.4,13.66l65.04-26.82c25.46,33.4,75.34,60.96,117.52,63.32.95.87,2.96.47,4.32.48.8,0,1.6.03,2.4,0,1.69-.07,2.93-.34,4.32-.48,11.01-1.1,21.11-3.62,31.66-6.72,33.41-9.81,64.6-28.68,85.86-56.6l65.02,26.83c7.08,1.09,14.03-4.15,17.08-10.2,2.18-4.33,1.12-7.03,1.34-11.61,1.85-39.24,1.23-79.97,1.44-119.44.08-14.75-.19-27.17-11.97-37.88-12.13-11.03-28.16-20.52-40.91-31.04l-2.75-.37c.01-15.98,0-31.99,0-47.97v-.48c0-55.56-.01-111.14.02-166.7-13.14-64.55-60.24-108.91-123.29-124.46-18.03-4.45-28.32-6.07-47.02-2.65-67.18,12.29-120.35,58.76-134.29,126.65-.02,55.72,0,111.44,0,167.16Z"/>
  <path class="st7" d="M989.46,249.04c-1.04.3.66,1.08.9,1.26,36.83,27.18,66.46,63.84,78.26,108.81-.1,60.39.97,120.81,1.42,181.09-.16,0-.32,0-.48,0h-261.42c0-55.71,0-111.44,0-167.16,13.94-67.89,67.11-114.36,134.29-126.65,18.7-3.42,28.99-1.8,47.02,2.65Z"/>
  <path class="st1" d="M1070.04,540.68c.46,62.23.72,124.43.74,186.62-11.76,41.47-37.35,77.72-73.17,101.67-10.55,3.1-20.64,5.61-31.66,6.72-1.35.18-3.34-.52-4.32.48-.79.03-1.6,0-2.4,0-.97-.92-2.94-.4-4.32-.48-42.18-2.36-92.06-29.92-117.52-63.32-14.13-18.54-23.95-41.93-29.21-64.57-.12-39.71-.02-79.44-.05-119.15-.01-15.98,0-31.99,0-47.97h28.78l-.02,168.63c5.59,30.03,23.78,61.69,52.46,74.65,6.69,3.02,12.16,5.84,18.71.79,4.15-3.2,6.18-8.76,5.48-13.94-1.15-8.52-6.54-7.61-13-10.5-21.77-9.77-33.92-30.76-36.7-53.96l-.06-165.66c68.04-.44,136.11.57,204.16.04.9,0,1.54-.51,1.62-.52.16,0,.32,0,.48,0,0,.16,0,.32,0,.48ZM939.46,774.4c-9.3,1.26-17.92,10.5-10.9,19.29,8.8,11.03,35.77,6.65,32.5-9.47-1.71-8.44-14.48-10.78-21.59-9.82Z"/>
  <path class="st2" d="M1112.74,540.2c-14.22.09-28.47-.12-42.69,0-.45-60.29-1.52-120.7-1.42-181.09-11.81-44.97-41.44-81.63-78.26-108.81-.24-.18-1.94-.96-.9-1.26,63.05,15.55,110.15,59.9,123.29,124.46-.03,55.57-.02,111.14-.02,166.7Z"/>
  <path class="st7" d="M1083.48,772.36c14.35-18.84,23.55-41.69,29.21-64.57.12-39.71.02-79.44.05-119.15l2.75.37c12.75,10.52,28.78,20.02,40.91,31.04,11.78,10.71,12.04,23.13,11.97,37.88-.21,39.47.41,80.2-1.44,119.44-.22,4.58.85,7.29-1.34,11.61-3.05,6.05-10,11.3-17.08,10.2l-65.02-26.83Z"/>
  <path class="st7" d="M808.14,588.65c.03,39.71-.07,79.43.05,119.15,5.26,22.64,15.08,46.03,29.21,64.57l-65.04,26.82c-6.86,1.97-17.42-7.45-18.4-13.66-1.24-7.9.11-21.55,0-30.21-.41-29.35-1.23-58.87-1.48-88.22-.14-16.04-1.4-34.66,11.53-46.55,12.11-11.15,28.75-20.71,41.48-31.44l2.66-.46Z"/>
  <path class="st3" d="M1112.74,540.68c0,15.98.01,31.99,0,47.97-.03,39.71.07,79.43-.05,119.15-5.66,22.88-14.86,45.72-29.21,64.57-21.26,27.92-52.46,46.79-85.86,56.6,35.82-23.94,61.41-60.2,73.17-101.67-.03-62.19-.29-124.39-.74-186.62h42.69Z"/>
  <path class="st8" d="M1112.74,540.2v.48h-42.69c0-.16,0-.32,0-.48,14.22-.12,28.47.09,42.69,0Z"/>
  <rect class="st5" x="808.14" y="540.2" width="28.78" height=".48"/>
  <path class="st6" d="M959.24,836.16c-1.35-.01-3.37.39-4.32-.48,1.38.08,3.35-.44,4.32.48Z"/>
  <path class="st6" d="M965.96,835.68c-1.38.14-2.62.41-4.32.48.98-1,2.96-.3,4.32-.48Z"/>
  <path class="st0" d="M863.79,540.2v.48l.06,165.66c2.78,23.2,14.93,44.19,36.7,53.96,6.46,2.9,11.84,1.98,13,10.5.7,5.19-1.33,10.74-5.48,13.94-6.55,5.05-12.01,2.23-18.71-.79-28.68-12.96-46.87-44.62-52.46-74.65l.02-168.63v-.48h26.86Z"/>
  <path class="st5" d="M1069.56,540.2c-.09,0-.73.51-1.62.52-68.04.53-136.12-.47-204.16-.04v-.48h205.78Z"/>
  <path class="st0" d="M939.46,774.4c7.12-.96,19.88,1.38,21.59,9.82,3.28,16.13-23.7,20.5-32.5,9.47-7.02-8.79,1.61-18.03,10.9-19.29Z"/>
</svg>